<?xml version="1.0" standalone="no"?>
<!DOCTYPE svg PUBLIC "-//W3C//DTD SVG 20010904//EN"
 "http://www.w3.org/TR/2001/REC-SVG-20010904/DTD/svg10.dtd">
<svg version="1.0" xmlns="http://www.w3.org/2000/svg"
 width="288.000000pt" height="288.000000pt" viewBox="0 0 288.000000 288.000000"
 preserveAspectRatio="xMidYMid meet">
<metadata>
Created by potrace 1.14, written by Peter Selinger 2001-2017
</metadata>
<g transform="translate(0.000000,288.000000) scale(0.100000,-0.100000)"
fill="#000000" stroke="none">
<path d="M1376 2723 c-1 -1 -38 -5 -81 -8 -44 -4 -93 -13 -110 -20 -16 -8 -46
-16 -66 -19 -69 -10 -180 -64 -218 -105 -49 -55 -123 -246 -136 -351 -3 -30
-8 -67 -11 -81 -2 -15 -5 -80 -5 -145 -2 -103 1 -127 21 -179 23 -59 28 -137
21 -326 -2 -56 35 -229 53 -247 7 -7 28 -16 47 -19 19 -2 41 -11 49 -18 8 -7
32 -18 53 -25 20 -6 37 -13 37 -14 0 -2 -31 -2 -70 -1 -91 2 -123 -13 -152
-75 -17 -36 -33 -53 -61 -66 -49 -22 -103 -83 -133 -148 -22 -48 -135 -427
-133 -444 1 -4 1 -9 -1 -12 -1 -3 -4 -16 -6 -30 -3 -14 -20 -92 -40 -175 -33
-143 -34 -150 -17 -163 10 -7 17 -22 15 -32 -3 -20 11 -20 1097 -20 1042 0
1100 1 1097 17 -4 18 -13 104 -22 193 -24 252 -28 272 -66 349 -27 56 -217
334 -273 399 -24 28 -89 67 -126 76 -18 4 -29 15 -33 32 -11 42 -38 76 -71 89
-17 6 -75 11 -135 10 -58 0 -108 3 -111 8 -3 4 -4 18 -2 30 4 18 22 27 99 51
52 16 111 30 131 30 36 1 37 2 47 56 7 30 16 62 21 70 11 18 14 31 18 87 2 23
10 49 17 58 7 8 10 15 7 15 -3 0 -1 17 3 38 5 20 12 64 15 97 4 33 11 68 16
78 16 28 12 266 -5 347 -6 26 -14 80 -21 130 -13 101 -102 296 -162 355 -27
26 -76 49 -133 61 -3 0 -16 4 -30 7 -27 7 -38 9 -157 27 -66 10 -270 20 -277
13z"/>
</g>
</svg>
